<svg xmlns="http://www.w3.org/2000/svg" viewBox="0 0 122.88 86.686" xml:space="preserve"><path fill-rule="evenodd" clip-rule="evenodd" d="M53.995 73.994h25.399c.064 4.396 1.872 8.325 6.783 11.429H47.22c3.92-2.847 6.793-6.307 6.775-11.429zM41.118 30.451v53.131a1.847 1.847 0 0 1-1.84 1.841H1.841A1.847 1.847 0 0 1 0 83.582V30.451c0-1.011.829-1.84 1.841-1.84h37.432c1.016 0 1.845.828 1.845 1.84zM20.557 79.303c1.164 0 2.11.945 2.11 2.109s-.946 2.11-2.11 2.11-2.11-.946-2.11-2.11a2.114 2.114 0 0 1 2.11-2.109zm18.065-47.408v45.537H2.755V31.895h35.867zm63.918 12.32h15.942c1.213 0 2.32.495 3.109 1.29a4.387 4.387 0 0 1 1.288 3.109v33.673a4.377 4.377 0 0 1-1.288 3.109 4.381 4.381 0 0 1-3.109 1.289H102.54a4.374 4.374 0 0 1-3.109-1.289 4.38 4.38 0 0 1-1.289-3.109V48.608c0-1.214.494-2.321 1.289-3.11.8-.8 1.895-1.283 3.109-1.283zm-2.883 36.361h21.701V49.012H99.657v31.564zm10.848 1.376c.995 0 1.808.801 1.808 1.808 0 .996-.801 1.809-1.808 1.809a1.806 1.806 0 0 1-1.809-1.809c0-.994.801-1.808 1.809-1.808zM17.5 0h97.411c1.542 0 2.8 1.257 2.8 2.8v31.73h-3.976V6.268a2.486 2.486 0 0 0-2.479-2.479H21.145a2.486 2.486 0 0 0-2.479 2.479v16.178H14.7V2.8c0-1.543 1.258-2.8 2.8-2.8zm29.53 60.417h45.478v9.713H47.03v-9.713z"/></svg>
