<svg xmlns="http://www.w3.org/2000/svg" viewBox="0 0 122.88 120.45" style="enable-background:new 0 0 122.88 120.45" xml:space="preserve"><path d="M8.89 0h105.1c4.9 0 8.89 4 8.89 8.89v102.68c0 4.88-4 8.89-8.89 8.89H8.89c-4.88 0-8.89-4-8.89-8.89V8.89C-.01 4 3.99 0 8.89 0zm57.28 91.29h30.49c1.95 0 3.54 1.61 3.54 3.54v6.69c0 1.94-1.61 3.54-3.54 3.54H66.17c-1.93 0-3.54-1.59-3.54-3.54v-6.69c0-1.95 1.59-3.54 3.54-3.54zm-39.94-30.5h70.42c1.71 0 3.27.7 4.41 1.84l.01.01a6.22 6.22 0 0 1 1.83 4.41v8.85c0 1.71-.7 3.28-1.83 4.41l-.01.01a6.22 6.22 0 0 1-4.41 1.83H26.23c-1.71 0-3.27-.7-4.41-1.83l-.01-.01a6.22 6.22 0 0 1-1.83-4.41v-8.85c0-1.71.7-3.27 1.83-4.41l.01-.01a6.223 6.223 0 0 1 4.41-1.84zm70.42 5.42H26.23c-.23 0-.44.09-.59.24-.15.15-.24.36-.24.59v8.85c0 .23.09.44.24.59.15.15.36.24.59.24h70.42c.23 0 .44-.09.59-.24.15-.15.24-.36.24-.59v-8.85c0-.23-.09-.44-.24-.59a.831.831 0 0 0-.59-.24zM26.23 33h70.42c1.71 0 3.27.7 4.41 1.83l.01.01a6.22 6.22 0 0 1 1.83 4.41v8.85c0 1.71-.7 3.28-1.83 4.41l-.01.01a6.22 6.22 0 0 1-4.41 1.83H26.23c-1.71 0-3.27-.7-4.41-1.83l-.01-.01a6.22 6.22 0 0 1-1.83-4.41v-8.85c0-1.71.7-3.27 1.83-4.41l.01-.01A6.256 6.256 0 0 1 26.23 33zm70.42 5.42H26.23c-.23 0-.44.09-.59.24-.15.15-.24.36-.24.59v8.85c0 .23.09.44.24.59.15.15.36.24.59.24h70.42c.23 0 .44-.09.59-.24.15-.15.24-.36.24-.59v-8.85c0-.23-.09-.44-.24-.59a.831.831 0 0 0-.59-.24zm18.15-11.41H8.46v82.6c0 .68.27 1.28.72 1.74.46.46 1.06.72 1.74.72H112.3c.68 0 1.28-.27 1.74-.72.46-.46.72-1.06.72-1.74v-82.6h.04zm-9.27-17.37a4.39 4.39 0 1 1-4.39 4.39 4.37 4.37 0 0 1 4.39-4.39zm-29.77 0c2.42 0 4.39 1.97 4.39 4.39s-1.97 4.39-4.39 4.39-4.39-1.97-4.39-4.39a4.37 4.37 0 0 1 4.39-4.39zm14.88 0c2.42 0 4.39 1.97 4.39 4.39s-1.97 4.39-4.39 4.39-4.39-1.97-4.39-4.39c0-2.43 1.96-4.39 4.39-4.39z" style="fill-rule:evenodd;clip-rule:evenodd"/></svg>
