<svg xmlns="http://www.w3.org/2000/svg" viewBox="0 0 60 60" style="enable-background:new 0 0 60 60" xml:space="preserve"><circle cx="12.525" cy="5.963" r="1"/><circle cx="9.525" cy="8.963" r="1"/><circle cx="33.525" cy="8.963" r="1"/><circle cx="36.525" cy="5.963" r="1"/><circle cx="39.525" cy="8.963" r="1"/><circle cx="27.525" cy="14.963" r="1"/><circle cx="21.525" cy="14.963" r="1"/><circle cx="51.525" cy="14.963" r="1"/><circle cx="24.525" cy="17.963" r="1"/><circle cx="27.525" cy="20.963" r="1"/><circle cx="18.525" cy="17.963" r="1"/><circle cx="21.525" cy="20.963" r="1"/><circle cx="54.525" cy="17.963" r="1"/><circle cx="48.525" cy="17.963" r="1"/><circle cx="51.525" cy="20.963" r="1"/><path d="M59.525 12.107c0-.154-.032-.3-.089-.433a1.254 1.254 0 0 0-.047-.29l-4.121-8.988A4.123 4.123 0 0 0 51.529 0H9.521C7.919 0 6.452.94 5.783 2.395L1.72 11.219l-.054.144a1.256 1.256 0 0 0-.038.418 1.273 1.273 0 0 0-.103.502V19c0 1.401.364 2.718 1 3.864v7.351a3.752 3.752 0 0 0-.93 1.83 3.946 3.946 0 0 0 .103 1.829c.097.328.02.726-.208 1.063C.443 36.485.23 38.644.962 40.309c.11.252.248.489.41.708.231.311.313.724.22 1.104a4.033 4.033 0 0 0-.106.626c-.082.896.103 1.766.25 2.464.155.735.39 1.847 1.214 2.555.44.379.98.576 1.576.609V52h-2.93l-.507.021-.614.755L1.679 60h56.846V22.864a7.942 7.942 0 0 0 1-3.864v-6.893zm-2.761 9.81c-.033.06-.071.117-.106.175-.133.22-.278.43-.434.628l-.008.01c-.154.195-.32.378-.494.55-.037.036-.077.069-.115.104-.059.055-.121.104-.182.156a.996.996 0 0 0-1.9.421c0 .232.092.435.224.605-.055.022-.111.041-.166.061a5.94 5.94 0 0 1-.39.13c-.092.027-.185.049-.278.072a5.903 5.903 0 0 1-.444.087c-.079.013-.158.027-.238.036-.233.03-.469.048-.708.048a5.964 5.964 0 0 1-2.224-.432.982.982 0 0 0 .224-.605.997.997 0 0 0-1.904-.416 6.04 6.04 0 0 1-1.444-1.84.986.986 0 0 0 .348-.744.99.99 0 0 0-.913-.982 5.982 5.982 0 0 1-.087-.98v-3.037a1 1 0 0 0 0-2V13h12v.963a1 1 0 0 0 0 2V19c0 .335-.034.661-.087.98a.991.991 0 0 0-.913.982c0 .3.138.561.348.744-.025.048-.045.099-.071.147l-.038.064zm-32.239 1.046a1 1 0 0 0-1 1c0 .499.372.895.85.97-.278.039-.56.067-.85.067-3.309 0-6-2.691-6-6v-6h12v6c0 2.784-1.908 5.124-4.483 5.798a.984.984 0 0 0 .483-.835 1 1 0 0 0-1-1zM8.818 24.954c-.08-.01-.159-.024-.238-.036a5.903 5.903 0 0 1-.722-.159 5.756 5.756 0 0 1-.39-.131c-.09-.033-.181-.061-.268-.098a6.108 6.108 0 0 1-.552-.268c-.091-.05-.178-.107-.266-.162a6.044 6.044 0 0 1-.551-.384 5.776 5.776 0 0 1-.386-.332c-.037-.035-.077-.067-.113-.103a6.19 6.19 0 0 1-.495-.55l-.008-.01a6.186 6.186 0 0 1-.434-.628c-.035-.058-.073-.115-.106-.175l-.038-.064A5.948 5.948 0 0 1 3.525 19v-6h12v6c0 3.309-2.691 6-6 6-.239 0-.474-.018-.707-.046zM31.525 13h12v6c0 3.309-2.691 6-6 6s-6-2.691-6-6v-6zM51.529 2c.823 0 1.578.483 1.922 1.231L57.023 11H45.36l-.818-4.5-.818-4.5h7.805zM31.525 2h1.815a.985.985 0 0 0-.815.963 1 1 0 0 0 2 0A.986.986 0 0 0 33.71 2h5.631a.985.985 0 0 0-.815.963 1 1 0 0 0 2 0A.986.986 0 0 0 39.711 2h1.981l.549 3.02a.987.987 0 0 0-.714.942 1 1 0 0 0 1 1c.023 0 .042-.012.065-.013L43.327 11H31.525V2zM19.36 2h10.165v9H17.724l.818-4.5.818-4.5zM5.969 6.772a.975.975 0 0 0 .556.191 1 1 0 0 0 1-1 .985.985 0 0 0-.747-.949L7.6 3.23a2.102 2.102 0 0 1 1.509-1.17.997.997 0 0 0 .416 1.903 1 1 0 0 0 1-1A.986.986 0 0 0 9.71 2h5.631a.985.985 0 0 0-.815.963 1 1 0 0 0 2 0A.986.986 0 0 0 15.711 2h1.617l-.818 4.5-.315 1.73a.99.99 0 0 0-.669-.267 1 1 0 0 0 0 2c.13 0 .253-.029.367-.074L15.69 11H4.022l1.947-4.228zM3.692 44.797c-.126-.597-.27-1.273-.215-1.868.01-.107.027-.217.055-.325a3.35 3.35 0 0 0-.556-2.78 1.723 1.723 0 0 1-.184-.318c-.458-1.044-.313-2.462.354-3.448.567-.841.737-1.844.468-2.75a1.978 1.978 0 0 1-.053-.898c.07-.378.265-.721.524-.958l.066-.053a1.37 1.37 0 0 1 .251-.166l.906-.74a.785.785 0 0 1 .253-.165c.022-.01.044-.018.066-.026.185-.065.386-.082.555-.078.102.003.201.011.265.019.362.051.692.173.971.346l.22.182c.105.087.19.17.263.252.072.088.145.176.197.275.154.297.202.7.127 1.053a3.05 3.05 0 0 0 .617 2.557c.118.144.208.335.246.525.025.124.037.255.037.394-.001.418-.114.907-.343 1.484v.001a5.635 5.635 0 0 1-.655 1.237c-.49.675-.667 1.558-.517 2.441.05.294.136.589.26.876.118.271.186.581.204.893a2.668 2.668 0 0 1-.28 1.369c-.138.287-.321.56-.548.817l-.03.031a4.51 4.51 0 0 1-.332.331 5.487 5.487 0 0 1-1.112.765l-.013.006a3.428 3.428 0 0 1-.485.199c-.395.129-.792.168-1.022-.027-.31-.269-.46-.981-.56-1.453zM7.678 58H3.372l-.666-4h5.638l-.666 4zm-1.153-6v-4.07c.056-.026.111-.054.166-.082a7.274 7.274 0 0 0 1.495-1.023l.002.002.024-.024c.192-.172.372-.351.537-.539.025-.029.046-.06.071-.089.126-.15.245-.304.353-.462.049-.071.093-.143.138-.215.081-.13.155-.264.224-.399.036-.071.074-.142.107-.215a4.427 4.427 0 0 0 .404-1.422c.03-.27.038-.545.022-.818a4.658 4.658 0 0 0-.363-1.573c-.213-.492-.197-1.021.04-1.347.098-.135.185-.294.276-.445.226-.371.438-.772.619-1.23.452-1.14.586-2.123.408-3.009a3.193 3.193 0 0 0-.665-1.405 1.073 1.073 0 0 1-.204-.865 3.605 3.605 0 0 0 .06-1.001 3.632 3.632 0 0 0-.109-.691c-.007-.025-.005-.052-.012-.077h22.404v21H6.525zm32 6V31h14v27h-14zm18 0h-2V29h-18v29H9.706l.667-4h24.153V29H8.636a4.475 4.475 0 0 0-1.907-.738 4.22 4.22 0 0 0-.755-.034c-.065.002-.128.009-.192.014a3.464 3.464 0 0 0-.542.088c-.051.013-.103.022-.153.036-.199.06-.39.132-.562.226v-3.345c.574.463 1.21.836 1.887 1.122l.008.003a7.6 7.6 0 0 0 .677.248l.117.036c.195.059.393.109.594.153l.18.039c.188.036.379.065.572.088.066.008.131.019.197.025.254.024.51.039.768.039.338 0 .669-.028.996-.069.094-.012.187-.028.28-.043.247-.04.489-.091.728-.153.083-.021.166-.04.248-.064.307-.09.607-.195.898-.32.045-.019.086-.043.13-.063a8.045 8.045 0 0 0 1.573-.944c.055-.042.113-.081.167-.125a7.93 7.93 0 0 0 .692-.629c.049-.05.094-.104.142-.156a8.373 8.373 0 0 0 .648-.791 7.92 7.92 0 0 0 .437-.679c.019-.033.043-.063.062-.096.019.033.043.063.062.096a8.17 8.17 0 0 0 1.085 1.47c.048.052.092.106.142.156.218.223.449.433.692.629.054.044.112.083.167.125.198.152.402.294.614.427.079.049.157.098.238.145.233.135.473.26.721.372.044.02.086.044.13.063.29.125.591.23.898.32.082.024.165.042.248.064.239.062.481.113.728.153.093.015.186.031.28.043.326.041.657.069.994.069s.669-.028.996-.069c.094-.012.187-.028.28-.043.247-.04.489-.091.728-.153.083-.021.166-.04.248-.064.307-.09.607-.195.898-.32.045-.019.086-.043.13-.063a8.045 8.045 0 0 0 1.573-.944c.055-.042.113-.081.167-.125a7.93 7.93 0 0 0 .692-.629c.049-.05.094-.104.142-.156a8.373 8.373 0 0 0 .648-.791 7.92 7.92 0 0 0 .437-.679c.019-.033.043-.063.062-.096.019.033.043.063.062.096a8.17 8.17 0 0 0 1.085 1.47c.048.052.092.106.142.156.218.223.449.433.692.629.054.044.112.083.167.125.198.152.402.294.614.427.079.049.157.098.238.145.233.135.473.26.721.372.044.02.086.044.13.063.29.125.591.23.898.32.082.024.165.042.248.064.239.062.481.113.728.153.093.015.186.031.28.043.326.041.657.069.994.069s.669-.028.996-.069c.094-.012.187-.028.28-.043.247-.04.489-.091.728-.153.083-.021.166-.04.248-.064.307-.09.607-.195.898-.32.045-.019.086-.043.13-.063a8.045 8.045 0 0 0 1.573-.944c.055-.042.113-.081.167-.125a7.93 7.93 0 0 0 .692-.629c.049-.05.094-.104.142-.156a8.373 8.373 0 0 0 .648-.791 7.92 7.92 0 0 0 .437-.679c.019-.033.043-.063.062-.096.019.033.043.063.062.096a8.17 8.17 0 0 0 1.085 1.47c.048.052.092.106.142.156.218.223.449.433.692.629.054.044.112.083.167.125.198.152.402.294.614.427.079.049.157.098.238.145.233.135.473.26.721.372.044.02.086.044.13.063.29.125.591.23.898.32.082.024.165.042.248.064.239.062.481.113.728.153.093.015.186.031.28.043.326.041.657.069.994.069.259 0 .514-.015.768-.039.066-.006.131-.017.197-.025.192-.023.383-.051.572-.088.061-.012.12-.026.18-.039.201-.044.399-.095.594-.153l.117-.036c.23-.073.456-.155.677-.248l.008-.003a7.884 7.884 0 0 0 1.887-1.122V58z"/><path d="M49.525 43a1 1 0 0 0-1 1v3a1 1 0 1 0 2 0v-3a1 1 0 0 0-1-1zM18.525 39a.997.997 0 0 0 .707-.293l4-4a.999.999 0 1 0-1.414-1.414l-4 4A.999.999 0 0 0 18.525 39zM18.525 44a.997.997 0 0 0 .707-.293l2-2a.999.999 0 1 0-1.414-1.414l-2 2A.999.999 0 0 0 18.525 44zM21.815 38.29c-.181.189-.29.45-.29.71a1.004 1.004 0 0 0 1.71.71c.18-.19.29-.45.29-.71s-.11-.521-.29-.71c-.37-.37-1.049-.37-1.42 0zM23.818 37.707a1 1 0 0 0 1.414 0l3-3a.999.999 0 1 0-1.414-1.414l-3 3a1 1 0 0 0 0 1.414zM18.525 49a.997.997 0 0 0 .707-.293l9-9a.999.999 0 1 0-1.414-1.414l-9 9A.999.999 0 0 0 18.525 49zM28.815 37.71c.189.18.45.29.71.29s.52-.11.71-.29c.18-.19.29-.45.29-.71s-.11-.521-.29-.71c-.37-.37-1.05-.37-1.42 0-.181.189-.29.45-.29.71s.11.52.29.71z"/></svg>
