<svg width="98" height="20" fill="none" xmlns="http://www.w3.org/2000/svg"><path fill-rule="evenodd" clip-rule="evenodd" d="M9.655 6.836V8.81H7.813V7.45c-.378-.9-1.376-1.754-2.93-1.754-1.554 0-2.53.855-2.93 1.754v5.79c.4.9 1.376 1.755 2.93 1.755 1.554 0 2.552-.856 2.93-1.754v-1.383h1.842v1.996c-.466 1.031-1.93 2.698-4.772 2.698-2.863 0-4.35-1.667-4.883-2.917V7.034c.533-1.251 2.02-2.896 4.883-2.896 2.841 0 4.306 1.645 4.772 2.698ZM14.33 11.858v2.106c.273.307 1.139 1.096 2.689 1.096 1.619 0 2.645-.614 3.215-1.404v-1.404c-.502-.745-1.596-1.425-3.215-1.425-1.573 0-2.393.68-2.69 1.031Zm7.91-4.825v7.742h1.208v1.47h-3.146v-1.031c-.753.723-2.006 1.338-3.67 1.338-2.76 0-3.922-1.382-4.218-1.843v-3.4c.319-.526 1.505-1.93 4.217-1.93 1.642 0 2.85.571 3.603 1.185V7.45c-.41-.922-1.437-1.755-3.01-1.755-1.572 0-2.394.812-2.713 1.207v1.096h-1.869v-1.71c.342-.527 1.641-2.15 4.582-2.15s4.469 1.645 5.016 2.895ZM27.839 6.918v6.84c.516.639 1.462 1.212 2.838 1.212 1.506 0 2.301-.816 2.603-1.345V7.05c-.302-.53-1.097-1.346-2.624-1.346-1.355 0-2.28.574-2.817 1.214Zm7.333-.331v7.5c-.387.883-1.526 2.45-4.064 2.45-1.463 0-2.603-.53-3.27-1.17V18.5H29V20h-4.172v-1.5h1.118V5.88h-1.118V4.404h2.968v.97c.73-.705 1.806-1.235 3.312-1.235 2.538 0 3.677 1.566 4.064 2.449ZM53.64 11.858v2.106c.273.307 1.14 1.096 2.69 1.096 1.618 0 2.644-.614 3.214-1.404v-1.404c-.502-.745-1.596-1.425-3.214-1.425-1.573 0-2.394.68-2.69 1.031Zm7.91-4.825v7.742h1.209v1.47h-3.146v-1.031c-.753.723-2.007 1.338-3.671 1.338-2.758 0-3.921-1.382-4.218-1.843v-3.4c.32-.526 1.505-1.93 4.218-1.93 1.641 0 2.85.571 3.602 1.185V7.45c-.41-.922-1.436-1.755-3.01-1.755-1.572 0-2.393.812-2.712 1.207v1.096h-1.87v-1.71c.342-.527 1.642-2.15 4.583-2.15 2.94 0 4.468 1.645 5.015 2.895ZM68.966 15.076v1.476h-4.138v-1.476h1.14V2.166h-1.14V.69h2.998v14.386h1.14ZM86.207 6.288V8.13h-1.851V6.902c-.357-.549-1.25-1.228-2.632-1.228-1.383 0-2.275.657-2.632 1.228v1.272c.335.504 1.049.855 2.119 1.096l1.405.307c2.12.483 3.212 1.272 3.59 1.908v2.918c-.467.68-1.783 2.149-4.482 2.149-2.698 0-4.059-1.491-4.483-2.15v-1.93h1.851v1.316c.38.549 1.25 1.207 2.632 1.207 1.383 0 2.275-.68 2.632-1.229v-1.49c-.312-.528-1.026-.878-2.119-1.12l-1.427-.329c-2.119-.46-3.212-1.25-3.569-1.864V6.266c.446-.658 1.785-2.128 4.483-2.128 2.721 0 4.037 1.491 4.483 2.15ZM90.23 7.472v1.776h5.859V7.472c-.4-.921-1.376-1.776-2.93-1.776-1.553 0-2.53.855-2.93 1.776Zm7.701-.636v3.838H90.23v2.544c.399.921 1.376 1.777 2.929 1.777 1.554 0 2.53-.856 2.93-1.777v-.9h1.842v1.536c-.466 1.031-1.931 2.698-4.772 2.698-2.863 0-4.35-1.667-4.883-2.917V7.034c.533-1.251 2.02-2.896 4.883-2.896 2.84 0 4.306 1.667 4.772 2.698ZM42.069 15.092v1.46H37.93v-1.46h1.14V6.288h-1.14v-1.46h2.998v10.264h1.14ZM41.38 1.38a1.38 1.38 0 1 1-2.76-.001 1.38 1.38 0 0 1 2.76 0ZM75.172 15.092v1.46h-4.138v-1.46h1.14V6.288h-1.14v-1.46h2.999v10.264h1.14ZM74.483 1.38a1.38 1.38 0 1 1-2.758 0 1.38 1.38 0 0 1 2.758 0ZM50.345 4.58v1.464h-3.373v7.82c.195.394.692 1.159 2.357 1.159.432 0 .843-.044 1.016-.066v1.399a6.767 6.767 0 0 1-1.665.196c-2.421 0-3.264-1.202-3.61-2.01V6.044h-1.622V4.58h1.622V1.959l1.902-.58V4.58h3.373Z" fill="#fff"/></svg>
